<svg width="359" height="289" viewBox="0 0 359 289" fill="none" xmlns="http://www.w3.org/2000/svg">
<g clip-path="url(#clip0_8_329)">
<path d="M356.34 167.524H82.2295C81.5244 167.523 80.8484 167.243 80.3498 166.744C79.8512 166.245 79.5707 165.568 79.57 164.862V2.66193C79.5707 1.95618 79.8512 1.27955 80.3498 0.780511C80.8484 0.281469 81.5244 0.00077043 82.2295 0H356.34C357.046 0.000770432 357.722 0.281471 358.22 0.780513C358.719 1.27955 358.999 1.95618 359 2.66193V164.862C358.999 165.568 358.719 166.245 358.22 166.744C357.722 167.243 357.046 167.523 356.34 167.524ZM82.2295 1.06477C81.8064 1.06523 81.4008 1.23365 81.1017 1.53308C80.8025 1.8325 80.6342 2.23848 80.6338 2.66193V164.862C80.6342 165.286 80.8025 165.692 81.1017 165.991C81.4008 166.29 81.8064 166.459 82.2295 166.459H356.34C356.764 166.459 357.169 166.29 357.468 165.991C357.767 165.692 357.936 165.286 357.936 164.862V2.66193C357.936 2.23848 357.767 1.8325 357.468 1.53308C357.169 1.23365 356.764 1.06523 356.34 1.06477H82.2295Z" fill="white"/>
<path d="M192.863 12.9542C192.31 12.9634 191.782 13.1898 191.395 13.5846C191.007 13.9794 190.789 14.5109 190.789 15.0645C190.789 15.6182 191.007 16.1497 191.395 16.5445C191.782 16.9392 192.31 17.1657 192.863 17.1749H245.73C246.288 17.1832 246.826 16.9696 247.227 16.5811C247.628 16.1926 247.859 15.6608 247.869 15.1022C247.879 14.5437 247.667 14.0039 247.281 13.6013C246.894 13.1987 246.363 12.966 245.805 12.9543L245.799 12.9542C245.776 12.9538 245.753 12.9538 245.73 12.9542H192.863Z" fill="#3F3D56"/>
<path d="M257.718 12.3665C257.641 12.4444 257.597 12.55 257.597 12.6601C257.597 12.7703 257.641 12.8759 257.718 12.9538L259.5 14.7365H255.107C254.998 14.7369 254.892 14.7808 254.815 14.8586C254.737 14.9365 254.694 15.0419 254.694 15.1518C254.694 15.2617 254.737 15.3672 254.815 15.445C254.892 15.5229 254.998 15.5668 255.107 15.5671H259.5L257.718 17.3498C257.68 17.3884 257.649 17.4342 257.628 17.4846C257.608 17.5349 257.597 17.589 257.597 17.6435C257.597 17.698 257.608 17.752 257.628 17.8024C257.649 17.8528 257.68 17.8986 257.718 17.9371C257.757 17.9757 257.803 18.0063 257.853 18.0272C257.903 18.048 257.957 18.0588 258.012 18.0588C258.066 18.0588 258.12 18.048 258.171 18.0272C258.221 18.0063 258.267 17.9757 258.305 17.9371L260.795 15.4455C260.872 15.3676 260.916 15.262 260.916 15.1518C260.916 15.0417 260.872 14.9361 260.795 14.8582L258.305 12.3665C258.267 12.3279 258.221 12.2974 258.171 12.2765C258.12 12.2556 258.066 12.2449 258.012 12.2449C257.957 12.2449 257.903 12.2556 257.853 12.2765C257.803 12.2974 257.757 12.3279 257.718 12.3665Z" fill="white"/>
<path d="M180.851 12.3665C180.929 12.4444 180.973 12.55 180.973 12.6601C180.973 12.7703 180.929 12.8759 180.852 12.9538L179.07 14.7365H183.462C183.517 14.7363 183.571 14.7469 183.622 14.7676C183.672 14.7884 183.718 14.8189 183.757 14.8574C183.795 14.896 183.826 14.9418 183.847 14.9922C183.868 15.0426 183.879 15.0967 183.879 15.1513C183.879 15.206 183.868 15.2601 183.847 15.3106C183.827 15.361 183.796 15.4069 183.757 15.4455C183.719 15.4842 183.673 15.5148 183.623 15.5356C183.572 15.5565 183.518 15.5672 183.463 15.5671H179.07L180.851 17.3498C180.89 17.3884 180.921 17.4342 180.941 17.4846C180.962 17.535 180.973 17.589 180.973 17.6435C180.973 17.698 180.962 17.752 180.941 17.8024C180.921 17.8528 180.89 17.8986 180.852 17.9371C180.813 17.9757 180.767 18.0063 180.717 18.0272C180.667 18.048 180.613 18.0588 180.558 18.0588C180.504 18.0588 180.45 18.048 180.399 18.0272C180.349 18.0063 180.303 17.9757 180.265 17.9372L177.775 15.4455C177.697 15.3676 177.654 15.262 177.654 15.1518C177.654 15.0417 177.697 14.9361 177.775 14.8582L180.265 12.3665C180.343 12.2886 180.448 12.2449 180.558 12.2449C180.668 12.2449 180.774 12.2886 180.851 12.3665Z" fill="white"/>
<path d="M79.4113 176.459C77.0076 176.459 74.6579 175.745 72.6593 174.409C70.6607 173.072 69.103 171.172 68.1832 168.95C67.2633 166.727 67.0226 164.281 67.4916 161.921C67.9605 159.562 69.118 157.394 70.8176 155.693C72.5173 153.992 74.6828 152.833 77.0403 152.364C79.3978 151.895 81.8414 152.136 84.0621 153.056C86.2829 153.977 88.1809 155.536 89.5163 157.536C90.8518 159.537 91.5645 161.889 91.5645 164.294C91.5645 167.521 90.2841 170.615 88.0049 172.896C85.7258 175.177 82.6345 176.459 79.4113 176.459Z" fill="#6626B5"/>
<path d="M84.2066 163.095H80.6101V159.495C80.6101 159.177 80.4838 158.871 80.259 158.646C80.0342 158.421 79.7292 158.295 79.4113 158.295C79.0933 158.295 78.7884 158.421 78.5636 158.646C78.3387 158.871 78.2124 159.177 78.2124 159.495V163.095H74.6159C74.2979 163.095 73.993 163.221 73.7682 163.446C73.5434 163.671 73.4171 163.976 73.4171 164.295C73.4171 164.613 73.5434 164.918 73.7682 165.143C73.993 165.368 74.2979 165.494 74.6159 165.494H78.2124V169.094C78.2124 169.412 78.3387 169.718 78.5636 169.943C78.7884 170.168 79.0933 170.294 79.4113 170.294C79.7292 170.294 80.0342 170.168 80.259 169.943C80.4838 169.718 80.6101 169.412 80.6101 169.094V165.494H84.2066C84.5246 165.494 84.8295 165.368 85.0543 165.143C85.2792 164.918 85.4055 164.613 85.4055 164.295C85.4055 163.976 85.2792 163.671 85.0543 163.446C84.8295 163.221 84.5246 163.095 84.2066 163.095Z" fill="white"/>
<path d="M138.257 34.5616H101.733V59.4063H138.257V34.5616Z" fill="white"/>
<path d="M187.902 34.5616H151.378V59.4063H187.902V34.5616Z" fill="white"/>
<path d="M237.547 34.5616H201.023V59.4063H237.547V34.5616Z" fill="white"/>
<path d="M287.192 34.5616H250.668V59.4063H287.192V34.5616Z" fill="white"/>
<path d="M336.837 34.5616H300.313V59.4063H336.837V34.5616Z" fill="white"/>
<path d="M138.391 78.2173H101.867V103.062H138.391V78.2173Z" fill="white"/>
<path d="M188.036 78.2173H151.512V103.062H188.036V78.2173Z" fill="white"/>
<path d="M237.681 78.2173H201.157V103.062H237.681V78.2173Z" fill="white"/>
<path d="M287.326 78.2173H250.802V103.062H287.326V78.2173Z" fill="white"/>
<path d="M336.971 78.2173H300.447V103.062H336.971V78.2173Z" fill="white"/>
<path d="M138.525 121.873H102.001V146.718H138.525V121.873Z" fill="white"/>
<path d="M188.17 121.873H151.646V146.718H188.17V121.873Z" fill="white"/>
<path d="M237.815 121.873H201.291V146.718H237.815V121.873Z" fill="white"/>
<path d="M287.46 121.873H250.936V146.718H287.46V121.873Z" fill="white"/>
<path d="M337.105 121.873H300.58V146.718H337.105V121.873Z" fill="white"/>
<path d="M208.603 46.984C211.149 46.984 213.213 44.9182 213.213 42.37C213.213 39.8217 211.149 37.756 208.603 37.756C206.057 37.756 203.993 39.8217 203.993 42.37C203.993 44.9182 206.057 46.984 208.603 46.984Z" fill="#6626B5"/>
<path d="M158.249 90.6396C160.795 90.6396 162.859 88.5739 162.859 86.0256C162.859 83.4774 160.795 81.4116 158.249 81.4116C155.703 81.4116 153.639 83.4774 153.639 86.0256C153.639 88.5739 155.703 90.6396 158.249 90.6396Z" fill="#6626B5"/>
<path d="M208.603 134.295C211.149 134.295 213.213 132.229 213.213 129.681C213.213 127.133 211.149 125.067 208.603 125.067C206.057 125.067 203.993 127.133 203.993 129.681C203.993 132.229 206.057 134.295 208.603 134.295Z" fill="#6626B5"/>
<path d="M259.312 90.6396C261.858 90.6396 263.922 88.5739 263.922 86.0256C263.922 83.4774 261.858 81.4116 259.312 81.4116C256.766 81.4116 254.702 83.4774 254.702 86.0256C254.702 88.5739 256.766 90.6396 259.312 90.6396Z" fill="#3F3D56"/>
<path d="M308.602 90.6396C311.148 90.6396 313.212 88.5739 313.212 86.0256C313.212 83.4774 311.148 81.4116 308.602 81.4116C306.056 81.4116 303.993 83.4774 303.993 86.0256C303.993 88.5739 306.056 90.6396 308.602 90.6396Z" fill="#3F3D56"/>
<path d="M158.249 134.295C160.795 134.295 162.859 132.229 162.859 129.681C162.859 127.133 160.795 125.067 158.249 125.067C155.703 125.067 153.639 127.133 153.639 129.681C153.639 132.229 155.703 134.295 158.249 134.295Z" fill="#3F3D56"/>
<path d="M37.3814 173.751C42.1101 173.751 45.9435 169.914 45.9435 165.181C45.9435 160.448 42.1101 156.611 37.3814 156.611C32.6526 156.611 28.8192 160.448 28.8192 165.181C28.8192 169.914 32.6526 173.751 37.3814 173.751Z" fill="#FFB6B6"/>
<path d="M34.29 215.89C34.1822 215.89 34.0739 215.885 33.9651 215.876C33.4266 215.831 32.9037 215.672 32.4306 215.411C31.9575 215.15 31.5449 214.791 31.2199 214.359C30.8949 213.927 30.6647 213.431 30.5446 212.904C30.4244 212.376 30.4169 211.83 30.5226 211.299C30.5476 211.176 30.579 211.054 30.6167 210.934L17.9797 195.975C17.5679 195.484 17.3254 194.873 17.288 194.233C17.2507 193.592 17.4206 192.957 17.7724 192.421L17.7953 192.394L29.1702 181.167C29.7913 180.555 30.6299 180.215 31.5015 180.222C32.3731 180.228 33.2065 180.581 33.8185 181.202C34.4305 181.823 34.7709 182.662 34.7651 183.535C34.7593 184.407 34.4076 185.241 33.7873 185.854C33.7731 185.869 33.7587 185.882 33.7441 185.896L25.5057 193.735L34.5248 208.224C34.6956 208.233 34.8656 208.254 35.0335 208.286C35.9664 208.473 36.7968 208.999 37.3636 209.764C37.9303 210.529 38.1928 211.477 38.1001 212.425C38.0075 213.373 37.5663 214.252 36.8622 214.892C36.1581 215.533 35.2414 215.888 34.29 215.89Z" fill="#FFB6B6"/>
<path d="M51.4831 284.451H55.7573L57.7903 267.952L51.4824 267.952L51.4831 284.451Z" fill="#FFB6B6"/>
<path d="M50.3931 283.055L58.8098 283.054C59.5142 283.054 60.212 283.193 60.8628 283.463C61.5136 283.733 62.1049 284.128 62.6029 284.627C63.101 285.125 63.4961 285.717 63.7657 286.368C64.0353 287.02 64.174 287.718 64.174 288.423V288.597L50.3934 288.598L50.3931 283.055Z" fill="#2F2E41"/>
<path d="M9.00349 278.537L12.6757 280.725L22.8568 267.59L17.4368 264.36L9.00349 278.537Z" fill="#FFB6B6"/>
<path d="M8.78064 276.779L16.0126 281.089C17.2349 281.817 18.1183 283.002 18.4679 284.382C18.8176 285.762 18.6052 287.225 17.8774 288.448L17.7882 288.598L5.9474 281.542L8.78064 276.779Z" fill="#2F2E41"/>
<path d="M56.7656 278.624H51.9798C51.5923 278.624 51.2183 278.481 50.9302 278.222C50.6421 277.962 50.4603 277.605 50.4199 277.22L45.5952 231.826C45.583 231.712 45.5336 231.605 45.4546 231.522C45.3756 231.438 45.2714 231.383 45.158 231.365C45.0447 231.347 44.9285 231.366 44.8274 231.421C44.7263 231.475 44.6458 231.561 44.5985 231.666L35.8946 250.957L20.4847 276.107C20.2852 276.429 19.9764 276.669 19.6148 276.782C19.2532 276.895 18.863 276.874 18.5156 276.723L12.3595 274.012C12.1559 273.922 11.9737 273.79 11.825 273.625C11.6763 273.459 11.5644 273.264 11.4968 273.052C11.4292 272.84 11.4074 272.616 11.4329 272.395C11.4584 272.173 11.5305 271.96 11.6445 271.769L25.8105 248.028L30.1551 228.025C28.7886 219.351 34.6465 206.454 34.7059 206.324L34.7349 206.261L50.8705 199.949L50.9514 200.048C57.3148 220.949 61.1924 243.442 58.3293 277.185C58.294 277.577 58.1143 277.941 57.8252 278.207C57.5361 278.473 57.1583 278.621 56.7656 278.624Z" fill="#2F2E41"/>
<path d="M34.0848 208.375L34.0097 208.217C33.9738 208.141 30.3859 200.567 27.6201 192.472C27.0886 190.907 26.8876 189.248 27.03 187.601C27.1724 185.954 27.655 184.354 28.4473 182.903C29.2499 181.437 30.3478 180.154 31.6717 179.136C32.9955 178.117 34.5163 177.384 36.1378 176.984C38.9527 176.309 41.9163 176.668 44.4887 177.997C47.0611 179.325 49.0711 181.534 50.1525 184.222C52.3463 189.713 51.6471 195.574 50.9891 200.183L50.976 200.275L50.8921 200.316L34.0848 208.375Z" fill="#6626B5"/>
<path d="M47.7628 160.34H34.167V154.408C37.1512 153.222 40.0713 152.213 41.8364 154.408C43.4082 154.408 44.9156 155.033 46.027 156.146C47.1384 157.258 47.7627 158.767 47.7628 160.34Z" fill="#2F2E41"/>
<path d="M33.4143 153.361C25.2866 153.361 23.0116 163.558 23.0116 169.311C23.0116 172.519 24.4612 173.667 26.739 174.055L27.5435 169.761L29.4276 174.24C30.0675 174.243 30.7397 174.231 31.4366 174.218L32.0754 172.901L33.4999 174.194C39.2055 174.202 43.8169 175.035 43.8169 169.311C43.8169 163.558 41.8218 153.361 33.4143 153.361Z" fill="#2F2E41"/>
<path d="M69.5416 164.774C69.5933 164.869 69.6411 164.966 69.6849 165.066C69.9036 165.561 70.0155 166.096 70.0131 166.637C70.0108 167.178 69.8943 167.712 69.6712 168.205C69.4482 168.697 69.1237 169.137 68.719 169.495C68.3143 169.854 67.8384 170.123 67.3227 170.284C67.2027 170.321 67.0808 170.352 66.9576 170.376L59.9002 188.648C59.6669 189.245 59.2474 189.751 58.704 190.091C58.1606 190.431 57.5223 190.586 56.8838 190.534L56.8483 190.527L41.5518 185.918C40.7168 185.667 40.0159 185.093 39.6032 184.324C39.1906 183.555 39.1 182.654 39.3515 181.818C39.6029 180.982 40.1758 180.281 40.944 179.868C41.7122 179.455 42.613 179.364 43.448 179.616C43.4671 179.622 43.4861 179.627 43.5051 179.634L54.3282 183.111L62.7073 168.243C62.6333 168.089 62.5701 167.93 62.5184 167.766C62.2346 166.858 62.2982 165.876 62.6971 165.011C63.096 164.147 63.8016 163.462 64.6769 163.089C65.5522 162.716 66.5347 162.682 67.4337 162.993C68.3327 163.304 69.0839 163.939 69.5416 164.774Z" fill="#FFB6B6"/>
<path d="M71.3155 289H0.36951C0.27151 289 0.177523 288.961 0.108227 288.892C0.0389302 288.822 0 288.728 0 288.63C0 288.532 0.0389302 288.438 0.108227 288.369C0.177523 288.299 0.27151 288.26 0.36951 288.26H71.3155C71.4135 288.26 71.5075 288.299 71.5768 288.369C71.6461 288.438 71.685 288.532 71.685 288.63C71.685 288.728 71.6461 288.822 71.5768 288.892C71.5075 288.961 71.4135 289 71.3155 289Z" fill="#CCCCCC"/>
</g>
<defs>
<clipPath id="clip0_8_329">
<rect width="359" height="289" fill="white"/>
</clipPath>
</defs>
</svg>
