<svg width="355" height="312" viewBox="0 0 355 312" fill="none" xmlns="http://www.w3.org/2000/svg">
<g clip-path="url(#clip0_8_70)">
<path d="M177.935 8.73514C177.919 9.75408 177.723 10.7595 177.358 11.6939C176.994 12.6283 176.468 13.4734 175.811 14.1809C175.155 14.8884 174.379 15.4445 173.53 15.8174C172.68 16.1903 171.773 16.3727 170.86 16.3542H138.04C137.921 16.3508 137.802 16.3474 137.683 16.3372C137.376 16.315 137.07 16.2684 136.769 16.1976V3.22682C136.768 2.70784 136.91 2.20117 137.175 1.77466C137.44 1.34815 137.815 1.02216 138.251 0.840332H171.11C172.953 0.879214 174.706 1.73225 175.985 3.2123C177.264 4.69235 177.966 6.67855 177.935 8.73514Z" fill="white"/>
<path d="M351.211 1.78185e-05H139.547C139.091 -0.00148628 138.639 0.0922449 138.213 0.276373C137.492 0.577602 136.87 1.11765 136.432 1.82421C135.993 2.53077 135.758 3.37013 135.758 4.22989V261.97C135.759 263.092 136.158 264.168 136.868 264.961C137.579 265.754 138.542 266.2 139.547 266.2H351.211C352.216 266.2 353.179 265.754 353.89 264.961C354.6 264.168 355 263.092 355 261.97V4.22989C355 3.10818 354.6 2.03253 353.89 1.23937C353.179 0.446201 352.216 0.000424403 351.211 1.78185e-05ZM353.484 261.97C353.484 262.643 353.244 263.288 352.818 263.764C352.392 264.239 351.814 264.507 351.211 264.508H139.547C138.944 264.507 138.367 264.239 137.941 263.764C137.514 263.288 137.275 262.643 137.274 261.97V4.22989C137.275 3.5571 137.514 2.91216 137.941 2.43643C138.367 1.96069 138.944 1.69298 139.547 1.69197H351.211C351.814 1.69298 352.392 1.96069 352.818 2.43643C353.244 2.91216 353.484 3.5571 353.484 4.22989V261.97Z" fill="white"/>
<path d="M238.872 88.5574C241.618 88.5574 243.844 86.072 243.844 83.0061C243.844 79.9402 241.618 77.4548 238.872 77.4548C236.125 77.4548 233.899 79.9402 233.899 83.0061C233.899 86.072 236.125 88.5574 238.872 88.5574Z" fill="#6626B5"/>
<path d="M259.59 88.5574C262.336 88.5574 264.562 86.072 264.562 83.0061C264.562 79.9402 262.336 77.4548 259.59 77.4548C256.844 77.4548 254.617 79.9402 254.617 83.0061C254.617 86.072 256.844 88.5574 259.59 88.5574Z" fill="#6626B5"/>
<path d="M197.435 134.431C200.181 134.431 202.408 131.946 202.408 128.88C202.408 125.814 200.181 123.329 197.435 123.329C194.689 123.329 192.463 125.814 192.463 128.88C192.463 131.946 194.689 134.431 197.435 134.431Z" fill="#6626B5"/>
<path d="M218.153 134.431C220.9 134.431 223.126 131.946 223.126 128.88C223.126 125.814 220.9 123.329 218.153 123.329C215.407 123.329 213.181 125.814 213.181 128.88C213.181 131.946 215.407 134.431 218.153 134.431Z" fill="#6626B5"/>
<path d="M238.872 157.368C241.618 157.368 243.844 154.883 243.844 151.817C243.844 148.751 241.618 146.266 238.872 146.266C236.125 146.266 233.899 148.751 233.899 151.817C233.899 154.883 236.125 157.368 238.872 157.368Z" fill="#6626B5"/>
<path d="M259.59 157.368C262.336 157.368 264.562 154.883 264.562 151.817C264.562 148.751 262.336 146.266 259.59 146.266C256.844 146.266 254.617 148.751 254.617 151.817C254.617 154.883 256.844 157.368 259.59 157.368Z" fill="#6626B5"/>
<path d="M280.308 157.368C283.054 157.368 285.28 154.883 285.28 151.817C285.28 148.751 283.054 146.266 280.308 146.266C277.562 146.266 275.335 148.751 275.335 151.817C275.335 154.883 277.562 157.368 280.308 157.368Z" fill="#6626B5"/>
<path d="M155.713 4.10146C155.602 4.2252 155.54 4.39303 155.54 4.56804C155.54 4.74304 155.602 4.91088 155.713 5.03465L158.25 7.86751H151.993C151.837 7.86802 151.687 7.93778 151.577 8.06148C151.466 8.18517 151.404 8.35273 151.404 8.52741C151.404 8.70209 151.466 8.86964 151.577 8.99334C151.687 9.11703 151.837 9.18679 151.993 9.1873H158.25L155.713 12.0201C155.602 12.1439 155.54 12.3117 155.54 12.4867C155.54 12.6617 155.602 12.8296 155.713 12.9533C155.824 13.0771 155.974 13.1466 156.131 13.1466C156.288 13.1466 156.438 13.0771 156.549 12.9534L160.095 8.99402C160.206 8.87027 160.268 8.70242 160.268 8.52741C160.268 8.35239 160.206 8.18455 160.095 8.06079L156.549 4.10146C156.438 3.97772 156.288 3.9082 156.131 3.9082C155.974 3.9082 155.824 3.97772 155.713 4.10146Z" fill="white"/>
<path d="M305.568 94.8496H172.055C171.539 94.8496 171.12 94.5971 171.12 94.2857C171.12 93.9742 171.539 93.7217 172.055 93.7217H305.568C306.085 93.7217 306.503 93.9742 306.503 94.2857C306.503 94.5971 306.085 94.8496 305.568 94.8496Z" fill="white"/>
<path d="M305.568 69.9339H172.055C171.539 69.9339 171.12 69.6813 171.12 69.3699C171.12 69.0584 171.539 68.8059 172.055 68.8059H305.568C306.085 68.8059 306.503 69.0584 306.503 69.3699C306.503 69.6814 306.085 69.9339 305.568 69.9339Z" fill="white"/>
<path d="M305.998 118.121H171.745C171.611 118.121 171.482 118.062 171.388 117.956C171.293 117.85 171.24 117.707 171.24 117.557C171.24 117.408 171.293 117.264 171.388 117.158C171.482 117.053 171.611 116.993 171.745 116.993H305.998C306.132 116.993 306.261 117.053 306.355 117.158C306.45 117.264 306.503 117.408 306.503 117.557C306.503 117.707 306.45 117.85 306.355 117.956C306.261 118.062 306.132 118.121 305.998 118.121Z" fill="white"/>
<path d="M305.998 140.68H171.745C171.611 140.68 171.482 140.621 171.388 140.515C171.293 140.41 171.24 140.266 171.24 140.116C171.24 139.967 171.293 139.823 171.388 139.718C171.482 139.612 171.611 139.552 171.745 139.552H305.998C306.132 139.552 306.261 139.612 306.355 139.718C306.45 139.823 306.503 139.967 306.503 140.116C306.503 140.266 306.45 140.41 306.355 140.515C306.261 140.621 306.132 140.68 305.998 140.68Z" fill="white"/>
<path d="M305.998 163.804H171.745C171.611 163.804 171.482 163.744 171.388 163.639C171.293 163.533 171.24 163.389 171.24 163.24C171.24 163.09 171.293 162.947 171.388 162.841C171.482 162.735 171.611 162.676 171.745 162.676H305.998C306.132 162.676 306.261 162.735 306.355 162.841C306.45 162.947 306.503 163.09 306.503 163.24C306.503 163.389 306.45 163.533 306.355 163.639C306.261 163.744 306.132 163.804 305.998 163.804Z" fill="white"/>
<path d="M290.339 162.642V69.7195C290.339 69.5264 290.565 69.3699 290.844 69.3699C291.123 69.3699 291.349 69.5264 291.349 69.7195V162.642C291.349 162.835 291.123 162.991 290.844 162.991C290.565 162.991 290.339 162.835 290.339 162.642Z" fill="white"/>
<path d="M269.627 162.642V69.7195C269.627 69.5264 269.853 69.3699 270.132 69.3699C270.411 69.3699 270.637 69.5264 270.637 69.7195V162.642C270.637 162.835 270.411 162.991 270.132 162.991C269.853 162.991 269.627 162.835 269.627 162.642Z" fill="white"/>
<path d="M248.915 162.642V69.7195C248.915 69.5264 249.142 69.3699 249.421 69.3699C249.699 69.3699 249.926 69.5264 249.926 69.7195V162.642C249.926 162.835 249.699 162.991 249.421 162.991C249.142 162.991 248.915 162.835 248.915 162.642Z" fill="white"/>
<path d="M228.709 162.642V69.7195C228.709 69.5264 228.935 69.3699 229.214 69.3699C229.493 69.3699 229.719 69.5264 229.719 69.7195V162.642C229.719 162.835 229.493 162.991 229.214 162.991C228.935 162.991 228.709 162.835 228.709 162.642Z" fill="white"/>
<path d="M207.492 186.24V69.808C207.52 69.6827 207.586 69.5716 207.677 69.4923C207.769 69.4129 207.881 69.3699 207.997 69.3699C208.113 69.3699 208.225 69.4129 208.317 69.4923C208.408 69.5716 208.474 69.6827 208.502 69.808V186.24C208.474 186.366 208.408 186.477 208.317 186.556C208.225 186.635 208.113 186.678 207.997 186.678C207.881 186.678 207.769 186.635 207.677 186.556C207.586 186.477 207.52 186.366 207.492 186.24Z" fill="white"/>
<path d="M186.275 186.24V69.808C186.303 69.6827 186.369 69.5716 186.46 69.4923C186.552 69.4129 186.664 69.3699 186.78 69.3699C186.896 69.3699 187.008 69.4129 187.1 69.4923C187.191 69.5716 187.257 69.6827 187.285 69.808V186.24C187.257 186.366 187.191 186.477 187.1 186.556C187.008 186.635 186.896 186.678 186.78 186.678C186.664 186.678 186.552 186.635 186.46 186.556C186.369 186.477 186.303 186.366 186.275 186.24Z" fill="white"/>
<path d="M171.745 186.927C171.611 186.928 171.482 186.869 171.387 186.763C171.292 186.657 171.239 186.514 171.239 186.365C171.238 186.215 171.291 186.071 171.386 185.965C171.48 185.859 171.609 185.8 171.743 185.799L223.15 185.55C223.283 185.553 223.41 185.613 223.504 185.718C223.598 185.823 223.653 185.964 223.657 186.112C223.657 186.186 223.645 186.26 223.619 186.328C223.594 186.397 223.557 186.459 223.511 186.512C223.464 186.564 223.408 186.606 223.347 186.635C223.286 186.663 223.22 186.678 223.154 186.678L171.747 186.927H171.745Z" fill="white"/>
<path d="M209.329 45.2192C209.195 45.2193 209.067 45.16 208.972 45.0543C208.877 44.9486 208.824 44.8052 208.824 44.6556C208.824 44.5061 208.877 44.3626 208.971 44.2567C209.066 44.1509 209.194 44.0913 209.328 44.0912L281.428 43.9907H281.429C281.563 43.9906 281.692 44.0499 281.786 44.1556C281.881 44.2613 281.935 44.4047 281.935 44.5543C281.935 44.7039 281.882 44.8474 281.787 44.9532C281.692 45.0591 281.564 45.1186 281.43 45.1187L209.33 45.2192H209.329Z" fill="white"/>
<path d="M233.742 229.092C231.741 229.092 229.784 228.429 228.119 227.187C226.455 225.946 225.158 224.181 224.392 222.116C223.626 220.051 223.425 217.779 223.816 215.587C224.206 213.396 225.17 211.382 226.586 209.802C228.001 208.222 229.805 207.145 231.768 206.709C233.731 206.273 235.766 206.497 237.616 207.352C239.465 208.208 241.046 209.656 242.158 211.514C243.27 213.372 243.864 215.557 243.864 217.792C243.864 219.276 243.602 220.745 243.093 222.116C242.585 223.487 241.839 224.733 240.899 225.782C239.959 226.831 238.844 227.664 237.616 228.231C236.388 228.799 235.072 229.092 233.742 229.092Z" fill="white"/>
<path d="M237.736 216.677H234.741V213.334C234.741 213.038 234.636 212.754 234.448 212.545C234.261 212.336 234.007 212.219 233.742 212.219C233.478 212.219 233.224 212.336 233.036 212.545C232.849 212.754 232.744 213.038 232.744 213.334V216.677H229.749C229.484 216.677 229.23 216.795 229.043 217.004C228.856 217.213 228.75 217.496 228.75 217.792C228.75 218.088 228.856 218.371 229.043 218.58C229.23 218.789 229.484 218.907 229.749 218.907H232.744V222.251C232.744 222.397 232.769 222.542 232.819 222.678C232.869 222.813 232.943 222.937 233.036 223.04C233.128 223.144 233.239 223.227 233.36 223.283C233.481 223.339 233.611 223.368 233.742 223.368C233.874 223.368 234.004 223.339 234.125 223.283C234.246 223.227 234.357 223.144 234.449 223.04C234.542 222.937 234.615 222.813 234.666 222.678C234.716 222.542 234.741 222.397 234.741 222.251V218.907H237.736C238.001 218.907 238.255 218.789 238.442 218.58C238.629 218.371 238.734 218.088 238.734 217.792C238.734 217.496 238.629 217.213 238.442 217.004C238.255 216.795 238.001 216.677 237.736 216.677Z" fill="white"/>
<path d="M256.98 229.092C254.978 229.092 253.021 228.429 251.357 227.187C249.693 225.946 248.395 224.181 247.629 222.116C246.863 220.051 246.663 217.779 247.053 215.587C247.444 213.396 248.408 211.382 249.823 209.802C251.239 208.222 253.042 207.145 255.006 206.709C256.969 206.273 259.004 206.497 260.853 207.352C262.703 208.208 264.283 209.656 265.396 211.514C266.508 213.372 267.101 215.557 267.101 217.792C267.101 219.276 266.839 220.745 266.331 222.116C265.822 223.487 265.077 224.733 264.137 225.782C263.197 226.831 262.081 227.664 260.853 228.231C259.625 228.799 258.309 229.092 256.98 229.092Z" fill="white"/>
<path d="M262.103 222.601L259.466 219.155C260.084 218.179 260.352 216.982 260.218 215.797C260.084 214.612 259.557 213.527 258.742 212.753C257.927 211.98 256.883 211.575 255.814 211.619C254.745 211.662 253.729 212.151 252.967 212.988C252.205 213.826 251.75 214.951 251.694 216.144C251.638 217.336 251.983 218.509 252.662 219.431C253.341 220.354 254.305 220.959 255.364 221.128C256.423 221.297 257.5 221.017 258.383 220.344L260.95 223.699C261.081 223.869 261.267 223.973 261.467 223.99C261.666 224.007 261.864 223.935 262.016 223.79C262.169 223.645 262.263 223.438 262.279 223.215C262.296 222.992 262.232 222.771 262.103 222.601ZM253.191 216.382C253.191 215.769 253.354 215.169 253.66 214.659C253.965 214.149 254.399 213.751 254.907 213.516C255.414 213.282 255.973 213.22 256.512 213.34C257.051 213.459 257.546 213.755 257.934 214.189C258.323 214.623 258.588 215.175 258.695 215.777C258.802 216.379 258.747 217.002 258.537 217.569C258.326 218.136 257.97 218.62 257.513 218.961C257.056 219.302 256.519 219.484 255.97 219.484C255.233 219.483 254.527 219.156 254.006 218.574C253.485 217.993 253.192 217.204 253.191 216.382Z" fill="white"/>
<path d="M209.329 230.206C209.195 230.206 209.067 230.147 208.972 230.041C208.877 229.935 208.824 229.792 208.824 229.642C208.824 229.493 208.877 229.349 208.971 229.243C209.066 229.138 209.194 229.078 209.328 229.078L281.428 228.977H281.429C281.563 228.977 281.692 229.036 281.786 229.142C281.881 229.248 281.935 229.391 281.935 229.541C281.935 229.69 281.882 229.834 281.787 229.94C281.692 230.045 281.564 230.105 281.43 230.105L209.33 230.206H209.329Z" fill="white"/>
<path d="M117.062 303.994L123.507 303.993L126.573 276.243L117.061 276.244L117.062 303.994Z" fill="#FFB6B6"/>
<path d="M115.421 301.644V310.966H136.199V310.673C136.198 308.279 135.346 305.982 133.829 304.289C132.313 302.596 130.256 301.644 128.111 301.644L124.312 298.429L124.115 298.519L117.235 301.644H115.421Z" fill="#2F2E41"/>
<path d="M58.8356 294.64L64.603 297.849L78.435 274.54L69.9224 269.804L58.8356 294.64Z" fill="#FFB6B6"/>
<path d="M54.579 300.065L73.1742 310.408L73.2904 310.149C73.7648 309.088 74.0473 307.933 74.1217 306.75C74.1962 305.567 74.0611 304.38 73.7243 303.255C73.3875 302.131 72.8554 301.091 72.1586 300.196C71.4618 299.302 70.6138 298.569 69.6632 298.04L67.5466 293.274L67.3243 293.257L59.9287 292.62L59.7772 292.536L58.3021 291.718L54.579 300.065Z" fill="#2F2E41"/>
<path d="M121.433 154.839L85.8993 156.228L85.6518 155.826C85.6518 155.826 82.6208 163.722 82.6208 170.49C82.6208 172.74 84.0225 187.457 83.3099 190.241C83.2213 190.588 83.8311 191.436 83.6311 193.049C83.5014 194.095 82.7853 193.29 82.6208 194.741C82.5027 195.782 83.763 196.357 83.6311 197.561C83.4871 198.876 81.7535 203.138 81.5974 204.601C79.9361 220.182 77.7241 242.754 77.7241 242.754C77.7241 242.754 68.84 269.319 66.9607 269.751C63.8061 270.475 61.6764 276.879 63.4245 278.21C64.2569 278.845 75.0153 283.111 75.0153 283.111C75.6064 283.23 77.4557 282.194 76.2776 279.746C76.0607 279.295 77.3542 280.442 77.5691 279.902C77.7977 279.328 77.349 277.045 77.6108 276.408C79.962 270.687 83.5718 262.759 86.9926 258.689C92.0472 252.674 95.2481 245.014 96.1284 236.826L103.975 188.253L106.664 201.874L108.889 204.329L108.279 210.053L108.384 215.608L113.941 238.732C113.941 238.732 114.774 281.915 113.436 283.286C112.711 284.029 109.635 293.177 115.457 294.002L126.034 293.091C126.034 293.091 127.459 289.738 126.746 288.545C126.034 287.351 126.077 287.677 126.946 285.724C127.815 283.771 127.459 280.462 127.459 280.462C128.845 264.911 129.391 249.28 129.096 233.656C128.566 207.993 125.352 178.511 125.352 177.91C125.326 177.296 125.427 176.684 125.648 176.121V174.501L124.284 168.761L121.433 154.839Z" fill="#2F2E41"/>
<path d="M75.4294 169.269C75.1314 168.7 74.9487 168.066 74.8941 167.41C74.8396 166.754 74.9145 166.093 75.1135 165.473C75.3126 164.853 75.631 164.289 76.0464 163.822C76.4617 163.354 76.9638 162.994 77.5174 162.766L77.2621 134.261L83.5596 138.709L82.8357 165.725C83.1166 166.789 83.0383 167.931 82.6156 168.934C82.193 169.938 81.4553 170.733 80.5423 171.17C79.6294 171.607 78.6047 171.654 77.6623 171.304C76.72 170.954 75.9255 170.229 75.4294 169.269Z" fill="#FFB6B6"/>
<path d="M76.867 157.32L77.403 157.291L77.4669 157.293L79.4502 157.285L82.7167 157.277L82.9533 157.273L83.0599 157.296L84.175 157.513L84.2212 157.179L86.3949 152.543L88.0661 149.977L87.4581 146.953L86.2589 145.285L88.2957 142.529L88.553 141.169L90.2579 132.218L95.9087 102.53L95.9092 102.513L96.0279 101.883L97.8656 92.2384L97.2994 89.8132L96.6685 87.1507C96.2649 85.4604 95.3295 83.9889 94.0335 83.0057C93.471 82.5808 92.8519 82.258 92.1991 82.0492C91.367 81.774 90.493 81.6937 89.6318 81.8133L89.6221 81.8166C89.1335 81.8844 88.6533 82.014 88.1908 82.2028L88.0068 82.283C87.7507 82.3989 87.5015 82.5329 87.2606 82.684C86.5142 83.1474 85.8578 83.7719 85.3296 84.5212C84.8014 85.2706 84.412 86.1297 84.184 87.0486L78.1965 94.4948L77.1434 98.7082L76.8047 100.061L75.7193 107.275L75.7354 135.662L75.5422 136.948L75.2674 144.074L76.3412 145.708L75.128 147.688L75.0865 148.775L75.0783 149.055L76.6986 150.892L76.802 154.854L76.867 157.32Z" fill="#3F3D56"/>
<path d="M82.7159 164.119C91.6881 165.852 97.7046 165.192 101.407 159.043C106.237 152.176 115.022 160.285 122.433 163.299L123.312 162.239L124.808 160.44L123.434 158.703L124.808 155.353L123.661 151.219L122.196 150.92L122.59 147.361L123.206 145.28L121.398 143.064L119.862 137.531L120.968 125.952C122.482 110.081 119.549 94.0771 112.573 80.1457L108.375 75.9384L106.632 74.1901L104.293 69.3173L101.823 69.6387L95.1343 70.5016L94.907 71.1107L93.2652 75.5323L87.301 82.685C86.4574 83.6966 85.8165 84.8972 85.4207 86.2068C85.025 87.5164 84.8835 88.9051 85.0058 90.2805L85.1775 92.2093L85.3038 93.5967L85.8999 100.274L88.3298 127.554L88.5116 129.004L90.4666 144.688C87.2891 148.117 87.0957 147.369 85.7469 153.403C85.5954 154.075 83.8374 155.569 83.7263 156.223C83.5697 157.148 82.7159 164.119 82.7159 164.119Z" fill="#3F3D56"/>
<path d="M100.933 66.4426C107.349 66.4426 112.55 60.636 112.55 53.4731C112.55 46.3103 107.349 40.5037 100.933 40.5037C94.517 40.5037 89.3159 46.3103 89.3159 53.4731C89.3159 60.636 94.517 66.4426 100.933 66.4426Z" fill="#FFB6B6"/>
<path d="M88.7789 43.7101C90.3382 41.8975 92.8291 41.0036 94.9442 41.8637C95.4172 40.3526 96.2524 39.0154 97.359 37.9977C98.4655 36.9799 99.801 36.3206 101.22 36.0915C102.639 35.8624 104.087 36.0724 105.406 36.6985C106.726 37.3246 107.866 38.3428 108.703 39.6423C109.086 39.4505 109.507 39.3722 109.924 39.415C110.342 39.4579 110.743 39.6205 111.088 39.887C111.773 40.4308 112.325 41.1577 112.693 42.0013C113.643 44.0157 114.085 46.28 113.974 48.553C113.862 50.8261 113.201 53.0228 112.06 54.9095C112.515 53.8846 111.236 55.6497 109.991 55.1873C108.92 54.8741 104.525 51.7273 103.428 51.8864C102.331 52.0455 101.975 51.0579 100.902 50.7585C99.8509 50.3832 97.1679 55.2339 96.6302 58.4436C96.5283 59.0518 96.2808 59.8075 95.7267 59.8214C95.0443 59.8385 94.84 58.7473 94.2643 58.3375C93.993 58.1835 93.6787 58.153 93.3877 58.2526C93.0967 58.3522 92.8517 58.574 92.7042 58.8713C92.5697 59.1769 92.5025 59.5139 92.5082 59.8543C92.5139 60.1948 92.5923 60.5288 92.737 60.8285C93.0311 61.4243 93.4095 61.9632 93.8575 62.4243L93.5594 62.6072C93.2659 62.8419 92.9083 62.9554 92.548 62.928C92.1878 62.9007 91.8472 62.7344 91.5848 62.4575C90.4753 63.0163 87.4576 59.8647 87.8582 57.9579C87.0156 55.6207 86.5549 53.1339 86.4978 50.6153C86.4513 48.0748 87.266 45.6085 88.7789 43.7101Z" fill="#2F2E41"/>
<path d="M173.996 121.018C173.433 121.216 172.838 121.274 172.253 121.187C171.669 121.101 171.108 120.873 170.611 120.518C170.114 120.164 169.692 119.692 169.376 119.136C169.06 118.58 168.857 117.953 168.781 117.3L143.831 111.241L149.115 105.375L172.548 112.168C173.539 112.099 174.518 112.438 175.301 113.121C176.083 113.805 176.614 114.784 176.792 115.875C176.971 116.966 176.785 118.092 176.269 119.04C175.754 119.988 174.945 120.692 173.996 121.018Z" fill="#FFB6B6"/>
<path d="M106.57 80.8067C105.124 80.8655 103.737 81.4608 102.628 82.4983C102.014 83.0664 101.502 83.7592 101.119 84.5399C100.698 85.3869 100.435 86.3205 100.347 87.2843L100.347 87.2899C100.218 88.7092 100.468 90.1396 101.066 91.4004C101.664 92.6612 102.583 93.6961 103.707 94.3744L111.926 99.3469L112.967 99.9754C119.97 107.944 131.778 112.109 145.362 114.873L153.172 117.258L155.798 116.17L156.434 118.957L159.048 119.052L160.469 118.723L163.444 117.42L164.012 116.145L164.011 116.139L165.232 110.093L165.24 110.053L165.24 110.048L165.525 108.665L163.847 107.798L162.388 105.622L159.75 105.681L157.344 105.915L156.639 104.074L126.148 88.3217L119.834 85.057L119.819 85.0466L119.518 84.889L111.282 80.6348L109.04 80.7141L106.57 80.8067Z" fill="#3F3D56"/>
<path d="M173.2 128.036C175.946 128.036 178.172 125.551 178.172 122.485C178.172 119.419 175.946 116.934 173.2 116.934C170.454 116.934 168.228 119.419 168.228 122.485C168.228 125.551 170.454 128.036 173.2 128.036Z" fill="#6626B5"/>
<path d="M30.66 308.11C27.0119 308.469 23.3381 307.913 19.9069 306.484C16.4757 305.055 13.3737 302.789 10.8276 299.85C7.49827 295.931 5.21357 290.887 3.00405 286.009C2.36087 284.59 1.69603 283.122 1.01966 281.715C0.265573 280.181 -0.0598786 278.43 0.0852297 276.688C0.230338 274.946 0.839355 273.292 1.83383 271.94C2.78684 270.588 4.08062 269.586 5.54847 269.062C7.01632 268.538 8.59097 268.518 10.0695 269.002L10.392 269.106L13.2937 281.747C13.7266 279.862 14.6558 275.613 15.2425 271.451L15.2918 271.103L15.5808 271.246C18.6107 272.743 21.4597 274.66 24.0606 276.951C28.6681 281.077 32.4156 286.274 35.0425 292.18C37.6694 298.087 39.1128 304.561 39.2722 311.153L39.2799 311.546L30.66 308.11Z" fill="white"/>
<path d="M141.416 311.827L0.601495 312C0.44197 312 0.288972 311.929 0.176171 311.803C0.0633699 311.677 0 311.507 0 311.328C0 311.15 0.0633699 310.98 0.176171 310.854C0.288972 310.728 0.44197 310.657 0.601495 310.657L141.416 310.484C141.576 310.484 141.728 310.555 141.84 310.681C141.953 310.807 142.016 310.977 142.016 311.155C142.016 311.333 141.953 311.503 141.84 311.629C141.728 311.755 141.576 311.826 141.416 311.827Z" fill="#CACACA"/>
<path d="M258.766 37.6857H231.992C231.389 37.6857 230.811 37.4183 230.385 36.9424C229.959 36.4664 229.719 35.8209 229.719 35.1478C229.719 34.4747 229.959 33.8292 230.385 33.3532C230.811 32.8773 231.389 32.6099 231.992 32.6099H258.766C259.369 32.6099 259.947 32.8773 260.373 33.3532C260.8 33.8292 261.039 34.4747 261.039 35.1478C261.039 35.8209 260.8 36.4664 260.373 36.9424C259.947 37.4183 259.369 37.6857 258.766 37.6857Z" fill="white"/>
<path d="M343.095 16.1339C341.994 16.1339 340.918 15.7695 340.003 15.0867C339.088 14.4039 338.374 13.4334 337.953 12.298C337.532 11.1626 337.422 9.9132 337.636 8.70784C337.851 7.50248 338.381 6.39529 339.16 5.52628C339.938 4.65726 340.93 4.06546 342.009 3.8257C343.089 3.58594 344.208 3.70899 345.225 4.1793C346.242 4.64961 347.111 5.44604 347.723 6.4679C348.335 7.48975 348.661 8.69113 348.661 9.9201C348.661 11.5681 348.075 13.1486 347.031 14.3139C345.987 15.4792 344.571 16.1339 343.095 16.1339Z" fill="white"/>
</g>
<defs>
<clipPath id="clip0_8_70">
<rect width="355" height="312" fill="white"/>
</clipPath>
</defs>
</svg>
